<svg width="16" height="16" viewBox="0 0 16 16" fill="none" xmlns="http://www.w3.org/2000/svg">
<path d="M3.83301 10.1338V5.86686C3.83301 5.12727 3.83169 4.52131 3.89461 4.04395C3.95955 3.55157 4.10075 3.12181 4.43646 2.77962C4.77097 2.43811 5.18919 2.29591 5.6685 2.23014C6.13484 2.16619 6.72764 2.16699 7.4537 2.16699H9.77383C9.91901 2.1686 10.0815 2.17996 10.2346 2.24447H10.2352C10.4392 2.33085 10.5889 2.49571 10.7136 2.62337L12.7156 4.66504C12.8388 4.79059 13.0031 4.94506 13.089 5.15723H13.0884C13.1531 5.31649 13.1648 5.48559 13.1663 5.63444V10.1338C13.1663 10.8734 13.1677 11.4793 13.1047 11.9567C13.0398 12.4491 12.898 12.8782 12.5623 13.2204C12.2278 13.5619 11.8102 13.7047 11.3309 13.7705C10.8645 13.8345 10.2717 13.8337 9.54565 13.8337H7.4537C6.72764 13.8337 6.13484 13.8345 5.6685 13.7705C5.18919 13.7047 4.77097 13.5625 4.43646 13.221V13.2204C4.10098 12.8782 3.95953 12.4489 3.89461 11.9567C3.83169 11.4793 3.83301 10.8734 3.83301 10.1338ZM8.58831 10.167C8.85493 10.167 9.07106 10.3909 9.07106 10.667C9.07106 10.9431 8.85493 11.167 8.58831 11.167H6.40772C6.1411 11.167 5.92496 10.9431 5.92496 10.667C5.92496 10.3909 6.1411 10.167 6.40772 10.167H8.58831ZM10.5916 8.56673C10.8582 8.56673 11.0743 8.79071 11.0744 9.06673C11.0744 9.34287 10.8582 9.56673 10.5916 9.56673H6.40772C6.1411 9.56673 5.92496 9.34287 5.92496 9.06673C5.9251 8.79071 6.14119 8.56673 6.40772 8.56673H10.5916ZM10.5916 6.96712C10.8582 6.96712 11.0744 7.19098 11.0744 7.46712C11.0743 7.74321 10.8582 7.96712 10.5916 7.96712H6.40772C6.14114 7.96712 5.92503 7.74321 5.92496 7.46712C5.92496 7.19098 6.1411 6.96712 6.40772 6.96712H10.5916ZM10.552 3.861C10.5525 4.17898 10.5553 4.38721 10.5759 4.54329C10.5865 4.62347 10.5996 4.67106 10.6111 4.69954L10.6369 4.74251L10.6381 4.74382C10.6477 4.75364 10.6792 4.78684 10.8399 4.80892C10.9932 4.82998 11.197 4.83185 11.5043 4.83236L10.552 3.861ZM4.79853 10.1338C4.79853 10.902 4.79941 11.4273 4.85133 11.8213C4.89505 12.1528 4.96891 12.3336 5.06945 12.458L5.11408 12.5081V12.5088C5.23868 12.636 5.42036 12.7282 5.79547 12.7796C6.18369 12.8329 6.70075 12.8337 7.4537 12.8337H9.54565C10.2986 12.8337 10.8157 12.8329 11.2039 12.7796C11.579 12.7282 11.7607 12.636 11.8853 12.5088V12.5081C12.0089 12.3821 12.0981 12.2001 12.148 11.8213C12.1999 11.4273 12.2008 10.902 12.2008 10.1338V5.83366H11.6376C11.2811 5.83366 10.9656 5.83451 10.7129 5.79981C10.4472 5.76329 10.1788 5.67957 9.95926 5.45475V5.4541C9.7391 5.22931 9.65544 4.95352 9.6192 4.67936C9.58492 4.41981 9.58588 4.09609 9.58588 3.7334V3.16699H7.4537C6.70075 3.16699 6.18369 3.16779 5.79547 3.22103C5.42036 3.27248 5.23868 3.36465 5.11408 3.49186V3.49251C4.99041 3.61852 4.90129 3.80054 4.85133 4.17936C4.79941 4.57334 4.79853 5.09866 4.79853 5.86686V10.1338Z" fill="#AF5A1D"/>
</svg>
