<svg width="12" height="12" viewBox="0 0 12 12" fill="none" xmlns="http://www.w3.org/2000/svg">
<path d="M9.625 6C9.625 3.99797 8.00203 2.375 6 2.375C3.99797 2.375 2.375 3.99797 2.375 6C2.375 8.00203 3.99797 9.625 6 9.625C8.00203 9.625 9.625 8.00203 9.625 6ZM6 5.2251C6.20711 5.2251 6.375 5.39299 6.375 5.6001V7.2251H6.7998C7.00691 7.2251 7.1748 7.39299 7.1748 7.6001C7.17475 7.80716 7.00688 7.9751 6.7998 7.9751H5.2002C4.99312 7.9751 4.82525 7.80716 4.8252 7.6001C4.8252 7.39299 4.99309 7.2251 5.2002 7.2251H5.625V5.9751H5.2002C4.99312 5.9751 4.82525 5.80716 4.8252 5.6001C4.8252 5.39299 4.99309 5.2251 5.2002 5.2251H6ZM6.00391 3.625C6.21101 3.625 6.37891 3.79289 6.37891 4C6.37891 4.20711 6.21101 4.375 6.00391 4.375H6C5.79289 4.375 5.625 4.20711 5.625 4C5.625 3.79289 5.79289 3.625 6 3.625H6.00391ZM10.375 6C10.375 8.41625 8.41625 10.375 6 10.375C3.58375 10.375 1.625 8.41625 1.625 6C1.625 3.58375 3.58375 1.625 6 1.625C8.41625 1.625 10.375 3.58375 10.375 6Z" fill="#656571"/>
</svg>
